<svg width="29" height="35" viewBox="0 0 29 35" fill="none" xmlns="http://www.w3.org/2000/svg">
<path d="M11.0729 0.875L9.35936 2.53958H0.791656V5.86875H2.5052V30.8375C2.5052 31.7068 2.83305 32.593 3.47911 33.2206C4.12516 33.8482 5.03743 34.1667 5.93228 34.1667H23.0677C23.9625 34.1667 24.8748 33.8482 25.5209 33.2206C26.1669 32.593 26.4948 31.7068 26.4948 30.8375V5.86875H28.2083V2.53958H19.6406L17.9271 0.875H11.0729ZM5.93228 5.86875H23.0677V30.8375H5.93228V5.86875ZM9.35936 9.19792V27.5083H12.7864V9.19792H9.35936ZM16.2135 9.19792V27.5083H19.6406V9.19792H16.2135Z" fill="white"/>
</svg>
